<svg viewBox="0 0 90 90" fill="none" xmlns="http://www.w3.org/2000/svg"><g clip-path="url(#clip3)" fill="#fff"><path d="M64.5 84h-42a1.5 1.5 0 00-1.5 1.5v3a1.5 1.5 0 003 0V87h40.5a1.5 1.5 0 000-3zM33 37.5a1.5 1.5 0 001.5 1.5h6a1.5 1.5 0 001.5-1.5v-9a1.5 1.5 0 00-1.5-1.5h-6a1.5 1.5 0 00-1.5 1.5v9zm3-7.5h3v6h-3v-6zM19.5 18h-18A1.5 1.5 0 000 19.5v30a1.5 1.5 0 003 0V21h16.5a1.5 1.5 0 000-3zM72 73.5a1.5 1.5 0 001.5 1.5h6a1.5 1.5 0 001.5-1.5v-9a1.5 1.5 0 00-1.5-1.5h-6a1.5 1.5 0 00-1.5 1.5v9zm3-7.5h3v6h-3v-6zM7.5 54C.085 54 0 73.305 0 73.5c0 3.622 2.582 6.651 6 7.349V88.5a1.5 1.5 0 003 0v-7.65c3.418-.698 6-3.727 6-7.35 0-.194-.085-19.5-7.5-19.5zm0 24A4.506 4.506 0 013 73.5C3 66.027 5.007 57 7.5 57S12 66.027 12 73.5c0 2.48-2.019 4.5-4.5 4.5zm9-33h-6A1.5 1.5 0 009 46.5v3a1.5 1.5 0 003 0V48h3v7.5a1.5 1.5 0 003 0v-9a1.5 1.5 0 00-1.5-1.5zm57-6h6a1.5 1.5 0 001.5-1.5v-9a1.5 1.5 0 00-1.5-1.5h-6a1.5 1.5 0 00-1.5 1.5v9a1.5 1.5 0 001.5 1.5zm1.5-9h3v6h-3v-6z"/><path d="M16.5 27h-6A1.5 1.5 0 009 28.5v9a1.5 1.5 0 001.5 1.5h6a1.5 1.5 0 001.5-1.5v-9a1.5 1.5 0 00-1.5-1.5zM15 36h-3v-6h3v6zm33 1.5a1.5 1.5 0 001.5 1.5h6a1.5 1.5 0 001.5-1.5v-9a1.5 1.5 0 00-1.5-1.5h-6a1.5 1.5 0 00-1.5 1.5v9zm3-7.5h3v6h-3v-6zm37.5-12h-18a1.5 1.5 0 000 3H87v60.276A4.44 4.44 0 0085.5 81c-.26 0-.517.022-.77.067A5.957 5.957 0 0079.5 78a5.957 5.957 0 00-5.229 3.067A4.505 4.505 0 0069 85.5c0 2.481 2.02 4.5 4.5 4.5h12c2.48 0 4.5-2.019 4.5-4.5v-66a1.5 1.5 0 00-1.5-1.5zm-3 69h-12c-.827 0-1.5-.674-1.5-1.5s.673-1.5 1.5-1.5c.288 0 .56.082.813.245.41.264.924.312 1.377.129.453-.183.787-.576.897-1.052A2.981 2.981 0 0179.5 81c1.398 0 2.596.956 2.913 2.322a1.497 1.497 0 002.274.922c.977-.63 2.313.141 2.313 1.256 0 .826-.674 1.5-1.5 1.5zm-36-66h6a1.5 1.5 0 001.5-1.5v-9A1.5 1.5 0 0055.5 9h-6a1.5 1.5 0 00-1.5 1.5v9a1.5 1.5 0 001.5 1.5zm1.5-9h3v6h-3v-6zm-3 43.5a1.5 1.5 0 001.5 1.5h6a1.5 1.5 0 001.5-1.5v-9a1.5 1.5 0 00-1.5-1.5h-6a1.5 1.5 0 00-1.5 1.5v9zm3-7.5h3v6h-3v-6zM34.5 21h6a1.5 1.5 0 001.5-1.5v-9A1.5 1.5 0 0040.5 9h-6a1.5 1.5 0 00-1.5 1.5v9a1.5 1.5 0 001.5 1.5zm1.5-9h3v6h-3v-6zm7.935 60.435c-.27.285-.435.675-.435 1.065 0 .39.165.78.435 1.065.285.27.675.435 1.065.435.39 0 .78-.165 1.065-.435.27-.285.435-.675.435-1.065 0-.39-.165-.78-.435-1.065-.57-.555-1.56-.555-2.13 0zM33 55.5a1.5 1.5 0 001.5 1.5h6a1.5 1.5 0 001.5-1.5v-9a1.5 1.5 0 00-1.5-1.5h-6a1.5 1.5 0 00-1.5 1.5v9zm3-7.5h3v6h-3v-6z"/><path d="M30 64.5a1.5 1.5 0 001.5 1.5H36v13.5a1.5 1.5 0 003 0V66h12v13.5a1.5 1.5 0 003 0V66h4.5a1.5 1.5 0 000-3h-27a1.5 1.5 0 00-1.5 1.5zm42-9a1.5 1.5 0 001.5 1.5h6a1.5 1.5 0 001.5-1.5v-9a1.5 1.5 0 00-1.5-1.5h-6a1.5 1.5 0 00-1.5 1.5v9zm3-7.5h3v6h-3v-6z"/><path d="M64.5 0h-39A1.5 1.5 0 0024 1.5v78a1.5 1.5 0 003 0V3h36v76.5a1.5 1.5 0 003 0v-78A1.5 1.5 0 0064.5 0z"/></g><defs><clipPath id="clip3"><path fill="#fff" d="M0 0h90v90H0z"/></clipPath></defs></svg>