<svg width="24" height="24" fill="none" xmlns="http://www.w3.org/2000/svg"><g clip-path="url(#clip10)"><path d="M23.462 18.967l-3.706-3.707c-.739-.735-1.961-.713-2.725.052l-1.868 1.867-.368-.205c-1.18-.654-2.793-1.55-4.492-3.249-1.703-1.703-2.6-3.32-3.255-4.5l-.2-.36L8.1 7.616l.616-.618c.765-.765.786-1.987.05-2.725L5.06.565C4.324-.17 3.1-.149 2.336.616L1.29 1.667l.028.028a6.04 6.04 0 00-.86 1.519 6.276 6.276 0 00-.383 1.54c-.49 4.057 1.364 7.765 6.396 12.797 6.955 6.955 12.56 6.43 12.802 6.404a6.266 6.266 0 001.545-.388 6.02 6.02 0 001.512-.857l.023.02 1.059-1.036c.763-.765.785-1.988.049-2.727z" fill="#FF6058"/></g><defs><clipPath id="clip10"><path fill="#fff" d="M0 0h24v24H0z"/></clipPath></defs></svg>