<svg viewBox="0 0 100 23" fill="none" xmlns="http://www.w3.org/2000/svg"><g opacity=".95"><path d="M15.594 22.266c-.39 0-.8-.086-1.081-.301a1.224 1.224 0 01-.411-.949V10.734h2.184v9.183c0 .13-.021.345.152.495.065.044.194.13.54.13h6.36v1.724h-7.744z" fill="#fff"/><path d="M26.887 11.899c.41-.97.865-1.293 1.903-1.293.995 0 1.493.323 1.904 1.293l4.37 10.368H32.77l-1.19-2.91H26l-1.168 2.91h-2.293l4.348-10.368zm-.325 5.906h4.456l-1.881-4.7c-.065-.172-.174-.473-.325-.473-.151 0-.26.323-.324.474l-1.926 4.699zm16.288-7.071c.627 0 1.493.065 2.098.69.65.668.736 1.725.736 2.479 0 .625-.044 1.272-.541 1.875-.325.388-.67.56-1.082.604v.064c.541.043.995.302 1.277.604.54.604.54 1.423.54 2.07 0 .754 0 1.68-.67 2.413-.67.733-1.406.733-2.12.733H37.55c-.584 0-1.103.065-1.579-.452-.108-.13-.389-.518-.389-1.164v-8.256c0-.431.108-.884.368-1.185.346-.41.865-.475 1.233-.475h5.667zm-5.105 4.829h4.24c.432 0 .887 0 1.19-.41.086-.108.237-.388.237-1.164 0-.323-.021-.884-.389-1.229-.324-.301-.714-.301-1.082-.301h-3.569c-.173 0-.367-.022-.497.13-.13.15-.151.387-.151.516l.021 2.458zm0 4.117c0 .388.043.582.13.668.173.194.54.172.714.172h3.44c.345 0 .95-.021 1.275-.41.238-.301.303-.797.303-1.163 0-.323-.043-.862-.238-1.164-.13-.173-.454-.474-1.168-.474h-4.434l-.022 2.37zm9.41.862h6.425c1.038 0 1.081-.862 1.081-1.25 0-.453-.108-.992-1.125-1.294l-4.564-1.444c-.173-.043-.908-.302-1.362-.862-.52-.625-.606-1.53-.606-2.177 0-.69.086-1.53.735-2.134.606-.56 1.342-.647 1.904-.647h6.662v1.725H50.4c-.303 0-.649.021-.908.258-.282.26-.303.669-.303.884 0 .517.151 1.013 1.081 1.293l4.24 1.337c.779.237 1.298.496 1.644.819.692.668.757 1.681.757 2.22 0 .733-.108 1.53-.584 2.134-.584.733-1.298.82-2.077.82h-7.095v-1.682zm14.126-8.643c.411-.97.866-1.293 1.904-1.293.995 0 1.492.323 1.903 1.293l4.37 10.368h-2.293l-1.19-2.91h-5.58l-1.169 2.91h-2.292l4.347-10.368zm-.324 5.906h4.456l-1.882-4.7c-.065-.172-.173-.473-.324-.473-.152 0-.26.323-.325.474l-1.925 4.699zm10.489 4.461c-.39 0-.8-.086-1.082-.301a1.224 1.224 0 01-.41-.949V10.734h2.184v9.183c0 .13-.022.345.151.495.065.044.195.13.541.13h6.36v1.724h-7.744zm10.166 0c-.498 0-.952 0-1.32-.366-.39-.388-.433-.905-.433-1.358v-8.17c0-.452.152-.926.39-1.207.39-.409.952-.452 1.384-.452h7.42v1.724H82.8c-.195 0-.432.022-.606.173-.172.172-.172.388-.172.56v2.328H88.9v1.725h-6.857v2.694c0 .172.065.366.173.452.13.13.39.151.736.151h6.186v1.725h-7.527v.021zm8.674-1.724h6.403c1.038 0 1.082-.862 1.082-1.25 0-.453-.109-.992-1.125-1.294l-4.564-1.444c-.173-.043-.909-.302-1.363-.862-.52-.625-.606-1.53-.606-2.177 0-.69.087-1.53.736-2.134.605-.56 1.34-.647 1.903-.647h6.663v1.725h-5.927c-.303 0-.65.021-.909.258-.281.26-.303.669-.303.884 0 .517.152 1.013 1.082 1.293l4.24 1.337c.778.237 1.297.496 1.644.819.692.668.757 1.681.757 2.22 0 .733-.109 1.53-.584 2.134-.585.733-1.298.82-2.077.82h-7.117v-1.682h.065zM9.604 10.002L5.797.861C5.667.56 5.56.345 5.43.237A.867.867 0 004.802 0a.867.867 0 00-.627.237c-.13.108-.238.323-.368.625L0 10.023v10.562c0 .56.108.948.346 1.207.238.259.584.366 1.038.366h6.857c.455 0 .8-.129 1.039-.366.238-.259.346-.647.346-1.207L9.604 10zm-.93 0v1.638a1.344 1.344 0 00-.52-.173 1.194 1.194 0 00-.864.216L5.516 9.829c.065-.13.108-.259.13-.388A1.245 1.245 0 004.564 8.04a1.247 1.247 0 00-1.406 1.078c-.043.41.108.797.39 1.077l-.8 1.66c-.044 0-.087-.021-.13-.021a1.33 1.33 0 00-.585.064l-1.016-2.09 3.482-8.773c.087-.216.195-.324.303-.324.108 0 .195.108.303.324L8.674 10z" fill="#fff"/><path d="M8.674 13.751v6.898c0 .259-.044.431-.13.517-.087.087-.26.13-.498.13H1.557c-.238 0-.411-.043-.498-.13-.086-.086-.13-.258-.13-.517v-9.57l.563 1.164c-.151.172-.238.388-.281.646-.087.69.39 1.315 1.081 1.401a1.247 1.247 0 001.406-1.077 1.304 1.304 0 00-.367-1.057l.8-1.66c.043 0 .087.022.13.022.303.043.606-.043.843-.194L6.9 12.178a1.03 1.03 0 00-.108.366 1.244 1.244 0 001.081 1.401c.281.022.563-.043.8-.194z" fill="#EA524E"/></g></svg>