<svg viewBox="0 0 70 70" fill="none" xmlns="http://www.w3.org/2000/svg"><path d="M47.726 11.54V.045l-23.08 11.54V0L.41 12.759v57.24h69.243V0L47.726 11.54zm-25.39 56.152H2.719V14.144L22.337 3.822v63.87zm23.082 0H24.645V14.165L45.418 3.778v63.914zm21.927 0H47.726V14.144L67.345 3.822v63.87z" fill="#FF6058"/><path d="M11.952 33.07H5.027v-6.924h6.925v6.925zm-4.616-2.308h2.308v-2.308H7.336v2.308zM20.03 33.07h-6.925v-6.924h6.924v6.925zm-4.616-2.308h2.307v-2.308h-2.307v2.308zm-3.462 11.541H5.027v-6.924h6.925v6.924zm-4.616-2.308h2.308v-2.308H7.336v2.308zm12.694 2.308h-6.925v-6.924h6.924v6.924zm-4.616-2.308h2.307v-2.308h-2.307v2.308zm-3.462 11.54H5.027V44.61h6.925v6.924zm-4.616-2.308h2.308V46.92H7.336v2.308zm12.694 2.308h-6.925V44.61h6.924v6.924zm-4.616-2.308h2.307V46.92h-2.307v2.308zm-3.462 11.541H5.027v-6.925h6.925v6.925zM7.336 58.46h2.308v-2.31H7.336v2.309zm12.694 2.308h-6.925v-6.925h6.924v6.925zm-4.616-2.308h2.307v-2.31h-2.307v2.309zm18.463-25.39h-6.924v-6.924h6.924v6.925zm-4.616-2.308h2.308v-2.308h-2.308v2.308zm13.85 2.308h-6.923v-6.924h6.923v6.925zm-4.615-2.308h2.308v-2.308h-2.308v2.308zm-4.619 11.541h-6.924v-6.924h6.924v6.924zm-4.616-2.308h2.308v-2.308h-2.308v2.308zm13.85 2.308h-6.923v-6.924h6.923v6.924zm-4.615-2.308h2.308v-2.308h-2.308v2.308zm-4.619 11.54h-6.924V44.61h6.924v6.924zm-4.616-2.308h2.308V46.92h-2.308v2.308zm13.85 2.308h-6.923V44.61h6.923v6.924zm-4.615-2.308h2.308V46.92h-2.308v2.308zm-4.619 11.541h-6.924v-6.925h6.924v6.925zm-4.616-2.308h2.308v-2.31h-2.308v2.309zm13.85 2.308h-6.923v-6.925h6.923v6.925zm-4.615-2.308h2.308v-2.31h-2.308v2.309zM56.96 33.07h-6.925v-6.924h6.924v6.925zm-4.617-2.308h2.308v-2.308h-2.308v2.308zm12.695 2.308h-6.925v-6.924h6.925v6.925zm-4.616-2.308h2.308v-2.308h-2.308v2.308zM56.96 42.303h-6.925v-6.924h6.924v6.924zm-4.617-2.308h2.308v-2.308h-2.308v2.308zm12.695 2.308h-6.925v-6.924h6.925v6.924zm-4.616-2.308h2.308v-2.308h-2.308v2.308zm-3.462 11.54h-6.925V44.61h6.924v6.924zm-4.617-2.308h2.308V46.92h-2.308v2.308zm12.695 2.308h-6.925V44.61h6.925v6.924zm-4.616-2.308h2.308V46.92h-2.308v2.308zM56.96 60.768h-6.925v-6.925h6.924v6.925zm-4.617-2.308h2.308v-2.31h-2.308v2.309zm12.695 2.308h-6.925v-6.925h6.925v6.925zm-4.616-2.308h2.308v-2.31h-2.308v2.309z" fill="#FF6058"/></svg>