<svg viewBox="0 0 100 100" fill="none" xmlns="http://www.w3.org/2000/svg"><g clip-path="url(#clip1)"><path d="M82.617 48.568a4.004 4.004 0 01-4.004-4.004v-2.539a4.004 4.004 0 018.008 0v2.539a4.004 4.004 0 01-4.004 4.004z" fill="#B3B0B5"/><path d="M59.666 70.313v19.321a6.656 6.656 0 01-6.656 6.656h-31.8a6.656 6.656 0 01-6.655-6.656v-19.32" fill="#C6C4C8"/><path d="M72.266 43.165c0 19.416-15.74 35.156-35.157 35.156-19.416 0-35.156-15.74-35.156-35.156 0-19.417 15.74-35.156 35.156-35.156 19.416 0 35.157 15.739 35.157 35.156z" fill="#FF6977"/><path d="M55.078 43.165c0 9.923-8.045 17.969-17.969 17.969-9.923 0-17.968-8.046-17.968-17.97s8.045-17.968 17.968-17.968c9.924 0 17.97 8.044 17.97 17.969z" fill="#fff"/><path d="M41.016 43.165a3.906 3.906 0 11-7.813 0 3.906 3.906 0 017.813 0z" fill="#B3B0B5"/><path d="M57.031 43.165c0-10.986-8.937-19.922-19.922-19.922-10.984 0-19.922 8.936-19.922 19.922 0 10.985 8.938 19.922 19.922 19.922 10.985 0 19.922-8.937 19.922-19.922zm-35.937 0c0-8.831 7.184-16.016 16.015-16.016s16.016 7.185 16.016 16.016c0 8.83-7.185 16.016-16.016 16.016-8.83 0-16.015-7.185-16.015-16.016z" fill="#000"/><path d="M42.969 43.165a5.866 5.866 0 00-5.86-5.86 5.866 5.866 0 00-5.859 5.86c0 3.23 2.628 5.86 5.86 5.86 3.23 0 5.859-2.63 5.859-5.86zm-7.813 0a1.954 1.954 0 013.906 0 1.955 1.955 0 01-1.953 1.953 1.955 1.955 0 01-1.953-1.953z" fill="#000"/><path d="M88.574 44.564v-2.539a5.964 5.964 0 00-5.957-5.957 5.964 5.964 0 00-5.957 5.957v2.539a5.965 5.965 0 003.474 5.413c-1.91 12.168-8.855 22.56-18.517 29.154v-8.127C69.34 64.198 74.22 54.24 74.22 43.164c0-20.462-16.648-37.109-37.11-37.109-6.67 0-13.211 1.79-18.917 5.178a1.952 1.952 0 101.995 3.359 33.156 33.156 0 0116.922-4.63c18.309 0 33.203 14.895 33.203 33.203 0 18.308-14.894 33.203-33.203 33.203-18.308 0-33.203-14.895-33.203-33.203a33.17 33.17 0 014.63-16.924 1.953 1.953 0 00-3.358-1.994A37.068 37.068 0 000 43.165C0 54.24 4.88 64.198 12.601 71.004v18.63c0 4.747 3.862 8.609 8.609 8.609h31.8c4.746 0 8.607-3.862 8.607-8.608v-5.823a47.37 47.37 0 006.889-5.055c8.367-7.386 13.855-17.444 15.522-28.406a5.967 5.967 0 004.546-5.787zM57.711 81.509a43.324 43.324 0 01-18.648 5.166V80.74c0-.178-.026-.35-.07-.514a36.874 36.874 0 0018.718-6.212v7.495zm0 8.125a4.707 4.707 0 01-4.702 4.703h-31.8a4.707 4.707 0 01-4.701-4.703v-15.62a36.874 36.874 0 0018.719 6.212c-.045.164-.07.336-.07.514v7.933c0 1.078.874 1.953 1.952 1.953 7.197 0 14.228-1.63 20.602-4.702v3.71zm26.957-45.07a2.052 2.052 0 01-4.101 0v-2.539c0-1.13.92-2.05 2.05-2.05s2.051.92 2.051 2.05v2.539zm14.963 21.518a1.955 1.955 0 00-1.582-.808h-5.432l2.732-8.386a1.953 1.953 0 10-3.714-1.21l-3.566 10.944a1.953 1.953 0 001.857 2.558h5.424l-2.697 8.205a1.953 1.953 0 103.711 1.22l3.54-10.768a1.953 1.953 0 00-.273-1.755zM77.977 17h5.425l-2.698 8.204a1.953 1.953 0 103.71 1.22l3.541-10.768a1.955 1.955 0 00-1.855-2.563h-5.433L83.4 4.707a1.953 1.953 0 00-3.715-1.21L76.12 14.44a1.953 1.953 0 001.858 2.558z" fill="#000"/><path d="M12.25 20.258c.514 0 1.018-.209 1.38-.572.364-.363.573-.867.573-1.38a1.97 1.97 0 00-.572-1.382 1.967 1.967 0 00-1.381-.572 1.97 1.97 0 00-1.38.572 1.968 1.968 0 00-.573 1.381c0 .514.209 1.018.572 1.381a1.97 1.97 0 001.381.572z" fill="#000"/></g><defs><clipPath id="clip1"><path fill="#fff" d="M0 0h100v100H0z"/></clipPath></defs></svg>