<svg width="24" height="24" viewBox="0 0 24 24" fill="none" xmlns="http://www.w3.org/2000/svg"><g clip-path="url(#clip0)" fill="#4CB1F7"><path d="M12.155 8.907a2.448 2.448 0 100 4.896 2.448 2.448 0 000-4.896zm0 3.73a1.282 1.282 0 110-2.564 1.282 1.282 0 010 2.564z"/><path d="M21.917 3.311L6.005 1.504A2.186 2.186 0 004.285 2a2.214 2.214 0 00-.845 1.515l-.292 2.39h-.903C.963 5.905 0 7.042 0 8.324v11.92a2.215 2.215 0 002.244 2.273h16c1.282 0 2.448-.99 2.448-2.273v-.466a2.915 2.915 0 001.108-.467c.472-.397.774-.96.845-1.573l1.34-11.833a2.36 2.36 0 00-2.069-2.594zm-2.39 16.933c0 .641-.64 1.108-1.282 1.108h-16a1.05 1.05 0 01-1.078-1.108v-2.157l4.517-3.322a1.399 1.399 0 011.807.087l3.177 2.798a2.74 2.74 0 001.72.641c.492.006.976-.125 1.398-.379l5.742-3.322v5.654zm0-7.024l-6.353 3.702a1.486 1.486 0 01-1.72-.146L8.25 13.949a2.594 2.594 0 00-3.235-.117L1.167 16.63V8.324c0-.641.437-1.253 1.078-1.253h16a1.34 1.34 0 011.282 1.253v4.896zm3.295-7.472l-.001.011-1.37 11.833a.991.991 0 01-.379.787c-.116.116-.379.175-.379.233V8.324a2.506 2.506 0 00-2.448-2.419H4.315l.261-2.273a1.34 1.34 0 01.438-.758 1.34 1.34 0 01.874-.233l15.884 1.836c.64.06 1.11.63 1.05 1.27z"/></g><defs><clipPath id="clip0"><path fill="#fff" d="M0 0h24v24H0z"/></clipPath></defs></svg>