<svg width="18" height="18" fill="none" xmlns="http://www.w3.org/2000/svg"><g clip-path="url(#clip0)"><path d="M12.879 9.353L13.232 9l-.353-.354-8.13-8.13-.001-.002V.508s0-.002.003-.005L4.754.5h.005l.004.003 8.491 8.492v.003a.01.01 0 010 .003l-.004.003-8.49 8.492-.005.003a.02.02 0 01-.005-.003l-.354.353.354-.353a.012.012 0 01-.003-.005v-.005s0-.002.003-.004l8.129-8.129zM4.756 17.5c.002 0 .002 0 0 0h-.001z" fill="#000" stroke="#FF6058"/></g><defs><clipPath id="clip0"><path fill="#fff" d="M0 0h18v18H0z"/></clipPath></defs></svg>