<svg viewBox="0 0 70 70" fill="none" xmlns="http://www.w3.org/2000/svg"><path d="M62.344 36.094h.706a3.267 3.267 0 003.047-2.063l1.483-3.705c.154-.387.233-.8.233-1.216V17.5a3.285 3.285 0 00-3.282-3.281h-2.187a3.275 3.275 0 00-3.097 2.24l-5.834-2.47a5.465 5.465 0 00-5.288-4.145 5.404 5.404 0 00-2.72.753L26.24 2.48a3.281 3.281 0 00-2.559 6.043l.381.161v23.145A5.484 5.484 0 0020.152 35h-3.847a3.284 3.284 0 00-2.47 1.12l-6.46 7.384a3.278 3.278 0 00-.813 2.162v14.49H5.47a3.284 3.284 0 00-3.282 3.282v1.093a3.285 3.285 0 003.282 3.281h59.06a3.285 3.285 0 003.281-3.28v-1.094a3.285 3.285 0 00-3.28-3.282h-6.563v-1.093a3.285 3.285 0 00-3.282-3.282v-4.375h2.188V49.22h-2.188v-1.094L52.263 31.72h1.33v-2.19H51.94l-1.38-9.347a7.15 7.15 0 00.286-.156l8.217 3.48v9.305a3.285 3.285 0 003.28 3.28zM61.25 17.5a1.095 1.095 0 011.094-1.094h2.187a1.095 1.095 0 011.094 1.094v11.61a1.1 1.1 0 01-.078.406l-1.481 3.702a1.089 1.089 0 01-1.016.688h-.706a1.094 1.094 0 01-1.094-1.093V17.5zm-9.844-2.188a3.282 3.282 0 11-6.563 0 3.282 3.282 0 016.563 0zM23.954 5.075a1.094 1.094 0 011.434-.58l18.236 7.723a5.432 5.432 0 00-.858 2.013L24.534 6.508a1.095 1.095 0 01-.58-1.433zm18.883 11.561a5.463 5.463 0 002.853 3.547l-1.385 9.348h-1.649v2.188h1.325l-2.407 16.246-.001 1.254h-2.198v2.187h2.195l-.006 4.375h-.002a3.284 3.284 0 00-3.28 3.282v1.093h-8.75v-9.843h2.187a7.656 7.656 0 100-15.313H30.16a5.484 5.484 0 00-3.911-3.17V9.61l16.587 7.026zm-15.493 43.52H14.219V48.125a1.094 1.094 0 011.094-1.094H26.25a1.095 1.095 0 011.094 1.094v12.031zm-2.188-26.25a3.28 3.28 0 110 6.562 3.28 3.28 0 010-6.562zM8.75 45.666c0-.265.096-.521.271-.72l6.46-7.385a1.094 1.094 0 01.824-.373h3.383a5.469 5.469 0 0010.937 0h1.094a5.468 5.468 0 110 10.937H29.53a3.284 3.284 0 00-3.281-3.281H15.312a3.284 3.284 0 00-3.28 3.281v12.031H8.75v-14.49zm55.781 16.678a1.095 1.095 0 011.094 1.093v1.094a1.095 1.095 0 01-1.094 1.094H5.47a1.095 1.095 0 01-1.094-1.094v-1.094a1.095 1.095 0 011.094-1.093h59.06zm-8.75-3.282v1.094H40.47v-1.093a1.094 1.094 0 011.093-1.094h13.126a1.095 1.095 0 011.093 1.093zm-3.281-3.28h-8.75v-4.376h8.75v4.375zm0-7.577v1.014h-8.75v-1.014l2.443-16.486h3.864L52.5 48.205zm-2.767-18.674h-3.216l1.3-8.78c.104.005.203.03.308.03.105 0 .204-.025.307-.03l1.301 8.78zm2.893-11.124c.42-.606.712-1.29.858-2.012l5.578 2.362v2.376l-6.436-2.726z" fill="#FF6058"/></svg>