<svg width="100" height="23" viewBox="0 0 100 23" fill="none" xmlns="http://www.w3.org/2000/svg">
<g opacity="0.95">
<path d="M15.5941 22.2662C15.2047 22.2662 14.7938 22.18 14.5126 21.9645C14.3395 21.8136 14.1016 21.5118 14.1016 21.0161V10.7344H16.2863V19.9168C16.2863 20.0461 16.2647 20.2616 16.4377 20.4125C16.5026 20.4556 16.6324 20.5419 16.9785 20.5419H23.338V22.2662H15.5941Z" fill="white"/>
<path d="M26.8869 11.8988C27.2979 10.9288 27.7521 10.6055 28.7904 10.6055C29.7854 10.6055 30.283 10.9288 30.6939 11.8988L35.0634 22.2667H32.7705L31.5808 19.3568H26L24.8319 22.2667H22.5391L26.8869 11.8988ZM26.5624 17.8048H31.0184L29.1365 13.1058C29.0716 12.9334 28.9635 12.6316 28.812 12.6316C28.6606 12.6316 28.5525 12.955 28.4876 13.1058L26.5624 17.8048Z" fill="white"/>
<path d="M42.85 10.7344C43.4773 10.7344 44.3426 10.799 44.9482 11.4241C45.5972 12.0923 45.6837 13.1485 45.6837 13.9029C45.6837 14.528 45.6404 15.1747 45.1429 15.7782C44.8185 16.1662 44.4724 16.3387 44.0614 16.3818V16.4464C44.6021 16.4895 45.0564 16.7482 45.3376 17.05C45.8784 17.6535 45.8784 18.4726 45.8784 19.1192C45.8784 19.8737 45.8784 20.8005 45.2078 21.5334C44.5373 22.2662 43.8018 22.2662 43.088 22.2662H37.5505C36.9664 22.2662 36.4473 22.3309 35.9714 21.8136C35.8632 21.6843 35.582 21.2963 35.582 20.6496V12.3941C35.582 11.963 35.6902 11.5104 35.9498 11.2086C36.2959 10.799 36.815 10.7344 37.1827 10.7344H42.85ZM37.7451 15.5627H41.9848C42.4174 15.5627 42.8717 15.5627 43.1745 15.1531C43.261 15.0454 43.4124 14.7651 43.4124 13.9892C43.4124 13.6658 43.3908 13.1054 43.0231 12.7605C42.6986 12.4588 42.3093 12.4588 41.9415 12.4588H38.3724C38.1994 12.4588 38.0047 12.4372 37.8749 12.5881C37.7451 12.739 37.7235 12.9761 37.7235 13.1054L37.7451 15.5627ZM37.7451 19.6797C37.7451 20.0676 37.7884 20.2616 37.8749 20.3479C38.048 20.5419 38.4157 20.5203 38.5887 20.5203H42.0281C42.3742 20.5203 42.9798 20.4987 43.3043 20.1108C43.5422 19.809 43.6071 19.3132 43.6071 18.9468C43.6071 18.6235 43.5639 18.0846 43.3692 17.7828C43.2394 17.6104 42.9149 17.3086 42.2011 17.3086H37.7668L37.7451 19.6797Z" fill="white"/>
<path d="M47.1553 20.5419H53.5797C54.618 20.5419 54.6613 19.6797 54.6613 19.2917C54.6613 18.839 54.5531 18.3001 53.5365 17.9984L48.9723 16.5542C48.7993 16.5111 48.0638 16.2524 47.6096 15.692C47.0904 15.0669 47.0039 14.1616 47.0039 13.515C47.0039 12.8252 47.0904 11.9846 47.7394 11.381C48.345 10.8206 49.0805 10.7344 49.6429 10.7344H56.3052V12.4588H50.4C50.0971 12.4588 49.751 12.4803 49.4915 12.7174C49.2103 12.9761 49.1886 13.3856 49.1886 13.6012C49.1886 14.1185 49.3401 14.6143 50.2702 14.8945L54.5099 16.2309C55.2886 16.468 55.8077 16.7266 56.1538 17.05C56.846 17.7182 56.9109 18.7312 56.9109 19.2701C56.9109 20.003 56.8027 20.8005 56.3269 21.4041C55.7428 22.1369 55.029 22.2231 54.2503 22.2231H47.1553V20.5419Z" fill="white"/>
<path d="M61.2814 11.8988C61.6924 10.9288 62.1467 10.6055 63.1849 10.6055C64.18 10.6055 64.6775 10.9288 65.0885 11.8988L69.4579 22.2667H67.165L65.9753 19.3568H60.3946L59.2265 22.2667H56.9336L61.2814 11.8988ZM60.957 17.8048H65.4129L63.531 13.1058C63.4662 12.9334 63.358 12.6316 63.2066 12.6316C63.0552 12.6316 62.947 12.955 62.8821 13.1058L60.957 17.8048Z" fill="white"/>
<path d="M71.4457 22.2662C71.0563 22.2662 70.6453 22.18 70.3641 21.9645C70.1911 21.8136 69.9531 21.5118 69.9531 21.0161V10.7344H72.1379V19.9168C72.1379 20.0461 72.1162 20.2616 72.2893 20.4125C72.3542 20.4556 72.484 20.5419 72.83 20.5419H79.1896V22.2662H71.4457Z" fill="white"/>
<path d="M81.6115 22.2663C81.114 22.2663 80.6597 22.2663 80.292 21.8999C79.9026 21.5119 79.8594 20.9946 79.8594 20.5419V12.3726C79.8594 11.92 80.0108 11.4458 80.2487 11.1655C80.6381 10.756 81.2005 10.7129 81.6331 10.7129H89.0525V12.4373H82.8012C82.6065 12.4373 82.3686 12.4588 82.1955 12.6097C82.0225 12.7822 82.0225 12.9977 82.0225 13.1701V15.4981H88.9011V17.2225H82.0441V19.9168C82.0441 20.0893 82.109 20.2833 82.2172 20.3695C82.3469 20.4988 82.6065 20.5204 82.9526 20.5204H89.1391V22.2448H81.6115V22.2663Z" fill="white"/>
<path d="M90.2863 20.5419H96.689C97.7273 20.5419 97.7706 19.6797 97.7706 19.2917C97.7706 18.839 97.6624 18.3002 96.6458 17.9984L92.0817 16.5542C91.9086 16.5111 91.1732 16.2524 90.7189 15.692C90.1998 15.0669 90.1133 14.1616 90.1133 13.515C90.1133 12.8252 90.1998 11.9846 90.8487 11.381C91.4544 10.8206 92.1898 10.7344 92.7522 10.7344H99.4145V12.4588H93.4877C93.1849 12.4588 92.8388 12.4803 92.5792 12.7174C92.298 12.9761 92.2764 13.3856 92.2764 13.6012C92.2764 14.1185 92.4278 14.6143 93.3579 14.8945L97.5975 16.2309C98.3762 16.468 98.8954 16.7266 99.2415 17.05C99.9336 17.7182 99.9985 18.7312 99.9985 19.2701C99.9985 20.003 99.8904 20.8005 99.4145 21.4041C98.8305 22.1369 98.1167 22.2231 97.338 22.2231H90.2214V20.5419H90.2863Z" fill="white"/>
<path d="M9.60415 10.0015L5.7971 0.862196C5.66732 0.560428 5.55916 0.344878 5.42938 0.237104C5.27796 0.0862196 5.06165 0 4.80208 0C4.54251 0 4.32619 0.0862196 4.17478 0.237104C4.04499 0.344878 3.93684 0.560428 3.80705 0.862196L0 10.023V20.5849C0 21.1454 0.108155 21.5333 0.346096 21.792C0.584036 22.0507 0.930132 22.1584 1.38438 22.1584H8.2414C8.69565 22.1584 9.04175 22.0291 9.27969 21.792C9.51763 21.5333 9.62578 21.1454 9.62578 20.5849L9.60415 10.0015ZM8.67402 10.0015V11.6396C8.5226 11.5534 8.34956 11.4888 8.15488 11.4672C7.83041 11.4241 7.52758 11.5103 7.28964 11.6828L5.5159 9.82904C5.58079 9.69971 5.62405 9.57038 5.64568 9.44105C5.73221 8.75129 5.25633 8.1262 4.56414 8.03998C3.87194 7.95376 3.24465 8.42797 3.15812 9.11772C3.11486 9.52727 3.26628 9.91526 3.54748 10.1955L2.74713 11.8552C2.70387 11.8552 2.66061 11.8336 2.61735 11.8336C2.42267 11.8121 2.20636 11.8336 2.03331 11.8983L1.01666 9.80748L4.49924 1.03464C4.58577 0.819086 4.69392 0.711312 4.80208 0.711312C4.91023 0.711312 4.99676 0.819086 5.10491 1.03464L8.67402 10.0015Z" fill="white"/>
<path d="M8.67358 13.7514V20.649C8.67358 20.9077 8.63031 21.0801 8.54379 21.1663C8.45727 21.2526 8.28422 21.2957 8.04628 21.2957H1.55699C1.31905 21.2957 1.146 21.2526 1.05947 21.1663C0.972949 21.0801 0.929688 20.9077 0.929688 20.649V11.0786L1.49209 12.2426C1.34068 12.415 1.25415 12.6306 1.21089 12.8893C1.12437 13.579 1.60025 14.2041 2.29244 14.2903C2.98463 14.3765 3.61193 13.9023 3.69845 13.2126C3.74171 12.803 3.5903 12.415 3.33073 12.1564L4.13107 10.4967C4.17433 10.4967 4.2176 10.5182 4.26086 10.5182C4.56369 10.5613 4.86653 10.4751 5.10447 10.3242L6.89984 12.1779C6.83494 12.2857 6.81331 12.415 6.79168 12.5444C6.70516 13.2341 7.18104 13.8592 7.87323 13.9454C8.15443 13.967 8.43564 13.9023 8.67358 13.7514Z" fill="#EA524E"/>
</g>
</svg>
