<svg width="24" height="24" viewBox="0 0 24 24" fill="none" xmlns="http://www.w3.org/2000/svg">
<g clip-path="url(#clip0)">
<path d="M12.1552 8.90674C10.8031 8.90674 9.70703 10.0028 9.70703 11.3549C9.70703 12.7069 10.8031 13.803 12.1552 13.803C13.5072 13.803 14.6033 12.707 14.6033 11.3549C14.6033 10.0028 13.5073 8.90674 12.1552 8.90674ZM12.1552 12.6372C11.4469 12.6372 10.8728 12.0631 10.8728 11.3548C10.8728 10.6466 11.4469 10.0725 12.1552 10.0725C12.8634 10.0725 13.4376 10.6466 13.4376 11.3548C13.4376 12.0631 12.8634 12.6372 12.1552 12.6372Z" fill="#4CB1F7"/>
<path d="M21.9173 3.3111L6.00455 1.50419C5.38696 1.41639 4.76123 1.59668 4.28506 1.99967C3.80894 2.36885 3.50375 2.91609 3.43987 3.51515L3.14846 5.905H2.24492C0.96256 5.905 0.00078761 7.0416 0.00078761 8.32397V20.244C-0.0315114 21.4668 0.933608 22.4844 2.15651 22.5167C2.18596 22.5175 2.21547 22.5176 2.24492 22.5172H18.2451C19.5275 22.5172 20.6933 21.5263 20.6933 20.244V19.7777C21.0908 19.7009 21.468 19.542 21.8007 19.3114C22.273 18.9138 22.5753 18.3508 22.6459 17.7376L23.9866 5.905C24.1233 4.61968 23.2009 3.46344 21.9173 3.3111ZM19.5275 20.244C19.5275 20.8852 18.8863 21.3515 18.2451 21.3515H2.24492C1.66572 21.3685 1.18241 20.9127 1.16539 20.3335C1.1645 20.3037 1.16489 20.2738 1.16656 20.244V18.0873L5.68395 14.7649C6.22662 14.3482 6.99097 14.3852 7.49091 14.8523L10.6676 17.6501C11.1501 18.0552 11.7573 18.2816 12.3872 18.2913C12.8797 18.2973 13.364 18.1662 13.7861 17.9124L19.5275 14.59V20.244H19.5275ZM19.5275 13.2202L13.174 16.9215C12.6285 17.2447 11.9379 17.1862 11.4545 16.7758L8.24863 13.9488C7.32981 13.1593 5.98686 13.1109 5.0136 13.8322L1.16656 16.6301V8.32397C1.16656 7.68278 1.60374 7.07078 2.24492 7.07078H18.2451C18.9302 7.09917 19.4834 7.63983 19.5275 8.32397V13.2202ZM22.8219 5.74763C22.8215 5.75148 22.8212 5.75539 22.8208 5.75924L21.451 17.5918C21.4533 17.8986 21.3134 18.1892 21.0721 18.3787C20.9555 18.4953 20.6932 18.5536 20.6932 18.6119V8.32397C20.6472 6.99625 19.5732 5.93507 18.2451 5.905H4.31418L4.57647 3.63174C4.63337 3.33737 4.78728 3.07061 5.01365 2.87397C5.26926 2.69725 5.5783 2.61485 5.88801 2.64079L21.7717 4.47687C22.4125 4.53773 22.8828 5.10668 22.8219 5.74763Z" fill="#4CB1F7"/>
</g>
<defs>
<clipPath id="clip0">
<rect width="24" height="24" fill="white"/>
</clipPath>
</defs>
</svg>
